<svg width="100" height="100" viewBox="0 0 100 100" fill="none" xmlns="http://www.w3.org/2000/svg">
<path d="M43.027 86.0351C40.8969 84.4962 39.6525 82.9376 39.2176 81.2675C37.6048 75.0327 32.397 70.4818 26.5536 70.4818C20.711 70.4818 15.3079 75.0327 13.695 81.2705C13.2601 82.9345 12.0158 84.4962 9.8849 86.0374C7.2909 87.9165 6.10453 90.8225 6.78813 93.6248C7.60981 96.9962 11.3536 99.9946 16.4744 99.9946C18.6396 99.9946 20.6957 99.4392 22.4177 98.3901C23.5613 97.689 25.1177 97.3174 26.5483 97.3174C27.978 97.3174 29.336 97.6867 30.4949 98.3871C32.2222 99.4422 34.2669 99.9999 36.4123 99.9999C41.5301 99.9999 45.2967 97.0168 46.1245 93.6256C46.8081 90.8225 45.6187 87.9134 43.027 86.0351Z" fill="#F8F8E6"/>
<path d="M11.7142 70.4819C11.7142 67.093 9.03473 61.6959 5.85709 61.6959C2.68021 61.6959 0 67.093 0 70.4819C0 73.7107 2.62833 76.339 5.85709 76.339C9.08585 76.339 11.7142 73.7107 11.7142 70.4819Z" fill="#F8F8E6"/>
<path d="M47.0529 61.6959C43.876 61.6959 41.1958 67.093 41.1958 70.4819C41.1958 73.7107 43.8241 76.339 47.0529 76.339C50.2816 76.339 52.91 73.7107 52.91 70.4819C52.91 67.093 50.2305 61.6959 47.0529 61.6959Z" fill="#F8F8E6"/>
<path d="M29.4824 58.7667C29.4824 61.9962 32.1107 64.6245 35.3395 64.6245C38.5683 64.6245 41.1966 61.9962 41.1966 58.7667C41.1966 55.3777 38.5172 49.9814 35.3395 49.9814C32.1619 49.9814 29.4824 55.3777 29.4824 58.7667Z" fill="#F8F8E6"/>
<path d="M17.5726 64.6245C20.8013 64.6245 23.4297 61.9962 23.4297 58.7667C23.4297 55.3777 20.7495 49.9814 17.5726 49.9814C14.3949 49.9814 11.7147 55.3777 11.7147 58.7667C11.7147 61.9962 14.343 64.6245 17.5726 64.6245Z" fill="#F8F8E6"/>
<path d="M90.0797 36.0533C87.9496 34.5144 86.7052 32.7604 86.2704 31.0904C84.6575 24.8556 79.2544 20.5 73.411 20.5C67.5684 20.5 62.3606 24.8556 60.7477 31.0934C60.3129 32.7581 59.0685 34.5144 56.9376 36.0563C54.3436 37.9355 53.1573 40.8407 53.8409 43.6438C54.6625 47.0144 58.4063 50.0128 63.5271 50.0128C65.6924 50.0128 67.7485 49.4581 69.4704 48.4083C70.6141 47.7072 71.9752 47.3356 73.4057 47.3356C74.8354 47.3356 76.3888 47.7049 77.5477 48.4053C79.275 49.4604 81.3196 50.0189 83.465 50.0189C88.5828 50.0189 92.3495 47.035 93.1772 43.6438C93.8608 40.8407 92.6714 37.9324 90.0797 36.0533Z" fill="#F8F8E6"/>
<path d="M58.7677 20.5001C58.7677 17.1111 56.0875 11.7141 52.9098 11.7141C49.7329 11.7141 47.0527 17.1111 47.0527 20.5001C47.0527 23.7289 49.6811 26.3572 52.9098 26.3572C56.1393 26.3572 58.7677 23.7289 58.7677 20.5001Z" fill="#F8F8E6"/>
<path d="M94.1056 11.7141C90.9287 11.7141 88.2485 17.1111 88.2485 20.5001C88.2485 23.7289 90.8769 26.3572 94.1056 26.3572C97.3351 26.3572 99.9635 23.7289 99.9635 20.5001C99.9635 17.1111 97.2833 11.7141 94.1056 11.7141Z" fill="#F8F8E6"/>
<path d="M76.5352 8.78601C76.5352 12.0148 79.1635 14.6431 82.3922 14.6431C85.621 14.6431 88.2493 12.0148 88.2493 8.78601C88.2493 5.39703 85.5699 0 82.3922 0C79.2146 0 76.5352 5.39703 76.5352 8.78601Z" fill="#F8F8E6"/>
<path d="M58.7671 8.78601C58.7671 12.0148 61.3954 14.6431 64.6242 14.6431C67.8529 14.6431 70.4813 12.0148 70.4813 8.78601C70.4813 5.39703 67.8011 0 64.6242 0C61.4465 0 58.7671 5.39703 58.7671 8.78601Z" fill="#F8F8E6"/>
</svg>
