<svg width="223" height="223" viewBox="0 0 223 223" fill="none" xmlns="http://www.w3.org/2000/svg">
<g clip-path="url(#clip0)">
<path d="M95.9491 191.858C91.1989 188.427 88.424 184.951 87.4542 181.227C83.8575 167.323 72.2441 157.175 59.2134 157.175C46.1844 157.175 34.1354 167.323 30.5388 181.233C29.569 184.944 26.7941 188.427 22.0422 191.863C16.2576 196.054 13.612 202.534 15.1364 208.783C16.9687 216.302 25.3173 222.988 36.7368 222.988C41.5652 222.988 46.1504 221.749 49.9903 219.41C52.5407 217.847 56.0114 217.018 59.2015 217.018C62.3898 217.018 65.4182 217.841 68.0026 219.403C71.8545 221.756 76.4141 223 81.1983 223C92.611 223 101.011 216.348 102.857 208.785C104.381 202.534 101.729 196.047 95.9491 191.858Z" fill="#E4DFCF" fill-opacity="0.33"/>
<path d="M26.1226 157.175C26.1226 149.617 20.1474 137.582 13.0613 137.582C5.97686 137.582 0 149.617 0 157.175C0 164.375 5.86117 170.236 13.0613 170.236C20.2614 170.236 26.1226 164.375 26.1226 157.175Z" fill="#E4DFCF" fill-opacity="0.33"/>
<path d="M104.927 137.582C97.8428 137.582 91.866 149.617 91.866 157.175C91.866 164.375 97.7271 170.236 104.927 170.236C112.127 170.236 117.989 164.375 117.989 157.175C117.989 149.617 112.013 137.582 104.927 137.582Z" fill="#E4DFCF" fill-opacity="0.33"/>
<path d="M65.7449 131.05C65.7449 138.252 71.606 144.113 78.8062 144.113C86.0063 144.113 91.8675 138.252 91.8675 131.05C91.8675 123.493 85.8923 111.459 78.8062 111.459C71.72 111.459 65.7449 123.493 65.7449 131.05Z" fill="#E4DFCF" fill-opacity="0.33"/>
<path d="M39.1864 144.113C46.3866 144.113 52.2477 138.252 52.2477 131.05C52.2477 123.493 46.2709 111.459 39.1864 111.459C32.1003 111.459 26.1234 123.493 26.1234 131.05C26.1234 138.252 31.9846 144.113 39.1864 144.113Z" fill="#E4DFCF" fill-opacity="0.33"/>
<path d="M200.877 80.3989C196.126 76.9673 193.352 73.0559 192.382 69.3316C188.785 55.4281 176.736 45.7151 163.705 45.7151C150.676 45.7151 139.063 55.4281 135.466 69.3384C134.497 73.0508 131.722 76.9673 126.97 80.4057C121.185 84.5961 118.54 91.0749 120.064 97.3257C121.896 104.842 130.245 111.529 141.664 111.529C146.493 111.529 151.078 110.292 154.918 107.951C157.468 106.387 160.503 105.559 163.694 105.559C166.882 105.559 170.346 106.382 172.93 107.944C176.782 110.297 181.342 111.542 186.126 111.542C197.539 111.542 205.938 104.888 207.784 97.3257C209.309 91.0749 206.656 84.5893 200.877 80.3989Z" fill="#E4DFCF" fill-opacity="0.33"/>
<path d="M131.052 45.7156C131.052 38.1582 125.075 26.1228 117.989 26.1228C110.904 26.1228 104.928 38.1582 104.928 45.7156C104.928 52.9157 110.789 58.7769 117.989 58.7769C125.191 58.7769 131.052 52.9157 131.052 45.7156Z" fill="#E4DFCF" fill-opacity="0.33"/>
<path d="M209.855 26.1228C202.77 26.1228 196.794 38.1582 196.794 45.7156C196.794 52.9157 202.655 58.7769 209.855 58.7769C217.057 58.7769 222.918 52.9157 222.918 45.7156C222.918 38.1582 216.941 26.1228 209.855 26.1228Z" fill="#E4DFCF" fill-opacity="0.33"/>
<path d="M170.672 19.5928C170.672 26.7929 176.534 32.6541 183.734 32.6541C190.934 32.6541 196.795 26.7929 196.795 19.5928C196.795 12.0354 190.82 0 183.734 0C176.648 0 170.672 12.0354 170.672 19.5928Z" fill="#E4DFCF" fill-opacity="0.33"/>
<path d="M131.052 19.5928C131.052 26.7929 136.913 32.6541 144.113 32.6541C151.313 32.6541 157.174 26.7929 157.174 19.5928C157.174 12.0354 151.198 0 144.113 0C137.027 0 131.052 12.0354 131.052 19.5928Z" fill="#E4DFCF" fill-opacity="0.33"/>
</g>
<defs>
<clipPath id="clip0">
<rect width="223" height="223" fill="white"/>
</clipPath>
</defs>
</svg>
