<svg width="72" height="72" viewBox="0 0 72 72" fill="none" xmlns="http://www.w3.org/2000/svg">
<g clip-path="url(#clip0)">
<path d="M23.8239 40.8223C23.4667 40.1077 22.7363 39.6562 21.9372 39.6562C21.1382 39.6562 20.4078 40.1077 20.0506 40.8223L15.3865 50.1505C14.2429 52.4375 14.3629 55.1014 15.707 57.2764C17.0514 59.4515 19.3803 60.75 21.9372 60.75C24.4942 60.75 26.8231 59.4515 28.1675 57.2764C29.5117 55.1014 29.6315 52.4375 28.488 50.1505L23.8239 40.8223ZM24.5787 55.0585C24.0003 55.9945 23.0375 56.5312 21.9372 56.5312C20.837 56.5312 19.8741 55.9945 19.2957 55.0585C18.7173 54.1225 18.6677 53.0214 19.1598 52.0372L21.9372 46.4823L24.7147 52.0372C25.2068 53.0214 25.1571 54.1226 24.5787 55.0585Z" fill="#F27A1A"/>
<path d="M52.875 50.9062C48.8507 50.9062 45.8438 54.6183 45.8438 57.9375C45.8438 61.302 48.6695 63.5625 52.875 63.5625C57.0805 63.5625 59.9062 61.302 59.9062 57.9375C59.9062 54.6183 56.8993 50.9062 52.875 50.9062ZM52.875 59.3438C52.5871 59.3438 50.0625 59.3044 50.0625 57.9375C50.0625 56.6979 51.3868 55.125 52.875 55.125C54.3632 55.125 55.6875 56.6979 55.6875 57.9375C55.6875 59.3044 53.1629 59.3438 52.875 59.3438Z" fill="#F27A1A"/>
<path d="M52.875 48.0938C54.04 48.0938 54.9844 47.1494 54.9844 45.9844C54.9844 44.8194 54.04 43.875 52.875 43.875C51.71 43.875 50.7656 44.8194 50.7656 45.9844C50.7656 47.1494 51.71 48.0938 52.875 48.0938Z" fill="#F27A1A"/>
<path d="M47.6324 49.7469C48.5867 49.0787 48.8185 47.7634 48.1504 46.8091C47.4822 45.8549 46.1669 45.6228 45.2126 46.2911C44.2584 46.9592 44.0265 48.2746 44.6946 49.2289C45.3627 50.1832 46.678 50.4152 47.6324 49.7469Z" fill="#F27A1A"/>
<path d="M60.5376 46.291C59.5834 45.6227 58.2681 45.8546 57.5998 46.8091C56.9316 47.7633 57.1635 49.0786 58.1179 49.7469C59.0723 50.4151 60.3874 50.1831 61.0557 49.2288C61.7238 48.2744 61.4919 46.9591 60.5376 46.291Z" fill="#F27A1A"/>
<path d="M52.875 36.8438C48.921 36.8438 45.268 38.1563 42.3281 40.3684V34.7344C42.3281 31.9845 40.5645 29.6398 38.1094 28.7691V26.2969C38.1094 23.4965 36.2804 21.1168 33.7548 20.2854C33.3233 17.4371 31.8728 14.8264 29.6279 12.9397C28.762 12.2124 28.2656 11.2026 28.2656 10.1694V6.32812C28.2656 2.8388 25.4268 0 21.9375 0C18.4482 0 15.6094 2.8388 15.6094 6.32812V10.1694C15.6094 11.2026 15.113 12.2123 14.2473 12.9397C12.0022 14.8264 10.5517 17.4371 10.1202 20.2854C7.59459 21.1168 5.76562 23.4965 5.76562 26.2969V28.7691C3.31045 29.6398 1.54688 31.9845 1.54688 34.7344V65.6719C1.54688 69.1612 4.38567 72 7.875 72H36C38.6307 72 40.8907 70.3862 41.8441 68.097C44.8626 70.5365 48.7008 72 52.875 72C62.5676 72 70.4531 64.1145 70.4531 54.4219C70.4531 44.7293 62.5676 36.8438 52.875 36.8438ZM16.9616 16.1695C18.7833 14.6385 19.8281 12.4515 19.8281 10.1694V6.32812C19.8281 5.16502 20.7744 4.21875 21.9375 4.21875C23.1006 4.21875 24.0469 5.16502 24.0469 6.32812V10.1694C24.0469 12.4515 25.0917 14.6384 26.9135 16.1695C28.1119 17.1766 28.9603 18.5019 29.3775 19.9688H14.4975C14.9147 18.502 15.7631 17.1766 16.9616 16.1695ZM12.0938 24.1875H31.7812C32.9444 24.1875 33.8906 25.1338 33.8906 26.2969V28.4062H9.98438V26.2969C9.98438 25.1338 10.9306 24.1875 12.0938 24.1875ZM36 67.7812H7.875C6.71189 67.7812 5.76562 66.835 5.76562 65.6719V34.7344C5.76562 33.5713 6.71189 32.625 7.875 32.625H36C37.1631 32.625 38.1094 33.5713 38.1094 34.7344V44.8945C36.3309 47.6414 35.2969 50.913 35.2969 54.4219C35.2969 57.9308 36.3309 61.2024 38.1094 63.9492V65.6719C38.1094 66.835 37.1631 67.7812 36 67.7812ZM52.875 67.7812C45.5086 67.7812 39.5156 61.7882 39.5156 54.4219C39.5156 47.0555 45.5086 41.0625 52.875 41.0625C60.2414 41.0625 66.2344 47.0555 66.2344 54.4219C66.2344 61.7882 60.2414 67.7812 52.875 67.7812Z" fill="#F27A1A"/>
</g>
<defs>
<clipPath id="clip0">
<rect width="72" height="72" fill="white"/>
</clipPath>
</defs>
</svg>
