<svg width="72" height="72" viewBox="0 0 72 72" fill="none" xmlns="http://www.w3.org/2000/svg">
<g clip-path="url(#clip0)">
<path d="M46.2981 36.3745C46.1868 35.8208 46.0747 35.241 45.9655 34.6022C45.9655 34.6022 45.9528 33.0772 45.0632 31.8472C44.5567 32.3501 43.6814 33.507 42.7856 35.3636L36.2829 48.8302C35.8794 49.6673 35.8544 50.6461 36.2196 51.4498C36.5225 52.1206 37.0662 52.5974 37.7528 52.7889C39.7602 53.3521 41.8059 53.5918 44.0098 53.4761C45.6553 53.3918 47.0726 51.6384 46.9797 49.7991L46.3072 36.4613C46.3052 36.4336 46.301 36.4062 46.2981 36.3745Z" fill="#F27A1A"/>
<path d="M36.0001 72.0002C54.1228 72.0002 68.8659 57.2556 68.8659 39.1349C68.8659 25.7267 60.7911 14.1766 49.2527 9.06958C49.2305 9.1363 49.2229 9.20515 49.1989 9.27111C48.8753 10.6081 48.4312 11.8551 47.9086 13.0169C57.8185 17.5554 64.7314 27.5405 64.7314 39.1328C64.7314 45.5774 62.5745 51.5131 58.9775 56.3107C56.5869 54.2737 54.2648 52.0151 52.5191 49.3007C50.2827 45.8201 48.8873 44.0865 47.8356 41.6435L48.2449 49.7376C48.3726 52.2847 46.4219 54.6254 44.0734 54.7468C43.7031 54.7637 43.3415 54.7737 42.9874 54.7737C41.0893 54.7737 39.2124 54.5176 37.4057 54.012C36.3512 53.7182 35.5179 52.9942 35.0583 51.9748C34.542 50.8321 34.5706 49.4518 35.1367 48.2806L41.6382 34.813C41.9057 34.2604 42.993 32.1008 44.157 30.9769C44.1222 30.9532 44.0961 30.9231 44.0584 30.9C42.476 29.933 41.1048 31.1561 36.7976 31.1093C36.5096 30.4439 35.8489 29.9758 35.0776 29.9758C34.4111 29.9758 33.8295 30.328 33.4979 30.8532C27.8592 30.0748 22.8085 27.3096 21.4037 26.4871C21.4104 26.4251 21.4274 26.3643 21.4274 26.2998C21.4274 25.2767 20.3625 24.4485 19.0484 24.4485C17.7333 24.4485 16.6668 25.2767 16.6668 26.2998C16.6668 26.9758 17.141 27.561 17.8354 27.8838C17.9426 30.6284 19.141 39.7521 29.9843 42.3688L27.8028 46.0246C27.1538 47.1118 27.0094 48.3704 27.4073 49.4761C27.7751 50.4989 28.5562 51.2686 29.607 51.6438C30.7266 52.0446 31.9329 52.4227 33.1909 52.7724C33.1909 52.7724 35.0209 57.3077 36.4207 59.9072V67.8459C36.2775 67.8467 36.1398 67.8679 35.9975 67.8679C20.1545 67.8679 7.26428 54.9783 7.26428 39.135C7.26428 27.9371 13.7172 18.2414 23.0866 13.5018C22.2727 11.7598 21.7952 10.3412 21.5732 9.61231C10.6643 14.9645 3.13354 26.1839 3.13354 39.1349C3.13354 57.2556 17.8774 72.0002 36.0001 72.0002ZM37.6914 62.0491C38.815 63.7706 40.1456 65.4092 41.7332 66.8585V67.2904C40.4181 67.5579 39.0626 67.7018 37.6914 67.7827V62.0491Z" fill="#F27A1A"/>
<path d="M23.8241 8.3908C23.8241 8.3908 26.7 19.3305 35.0792 22.5451C35.0792 22.5451 44.05 17.9544 46.2779 8.54187C46.2828 8.52409 46.2828 8.51056 46.2864 8.49217C46.5559 7.79411 46.7191 7.04089 46.7191 6.24617C46.719 2.79617 43.923 0 40.473 0C38.1563 0 36.1568 1.27574 35.0792 3.15014C34.0011 1.27711 32.0022 0 29.6846 0C26.2344 0 23.4387 2.79617 23.4387 6.24633C23.4387 7.00092 23.5927 7.71463 23.8377 8.3835C23.8369 8.38472 23.8241 8.3908 23.8241 8.3908ZM30.5828 12.0183L34.4982 13.4646L38.0242 5.99981C38.3697 5.26817 39.2954 4.78897 40.0913 4.92909L41.3573 5.15251C42.1546 5.29324 42.4293 5.94874 41.9717 6.61549L34.7587 17.1377C34.3002 17.8058 33.5579 17.8058 33.0975 17.1406L30.0415 12.717C29.581 12.0502 29.8222 11.7388 30.5828 12.0183Z" fill="#F27A1A"/>
</g>
<defs>
<clipPath id="clip0">
<rect width="72" height="72" fill="white"/>
</clipPath>
</defs>
</svg>
