<svg width="50" height="64" viewBox="0 0 50 64" fill="none" xmlns="http://www.w3.org/2000/svg">
<path d="M49.375 0H0.625V64H49.375V0ZM19.375 3.75H30.625V7.5H19.375V3.75ZM45.625 60.25H4.375V3.75H15.625V11.25H34.375V3.75H45.625V60.25Z" fill="#F27A1A"/>
<path d="M13.924 19.8335L16.7965 17.4222L19.2078 20.2947L16.3353 22.706L13.924 19.8335Z" fill="#F27A1A"/>
<path d="M30.8024 20.3074L33.2136 17.4349L36.0861 19.8461L33.6749 22.7186L30.8024 20.3074Z" fill="#F27A1A"/>
<path d="M23.125 15.125H26.875V18.875H23.125V15.125Z" fill="#F27A1A"/>
<path d="M17.7281 26.5665C16.9426 26.9174 15.625 27.8463 15.625 30.125C15.625 31.3703 16.0082 32.3573 16.764 33.0586C18.123 34.32 20.0723 34.1743 22.3293 34.0055C23.1881 33.9414 24.0761 33.875 25 33.875C25.9239 33.875 26.8119 33.9414 27.6707 34.0055C28.4222 34.0616 29.1393 34.1153 29.812 34.1153C31.16 34.1153 32.3295 33.8999 33.236 33.0586C33.9918 32.3573 34.375 31.3703 34.375 30.125C34.375 27.8463 33.0574 26.9174 32.272 26.5665C31.8427 26.3736 30.959 25.0841 30.4841 24.3914C29.9711 23.6431 29.4867 22.9363 28.959 22.4026C27.9051 21.3369 26.4991 20.75 25 20.75C23.5009 20.75 22.0949 21.3369 21.041 22.4026C20.5081 22.9414 20.0241 23.6495 19.5116 24.3991C19.0401 25.0886 18.1624 26.3724 17.7281 26.5665ZM19.3849 29.9308C20.7202 29.2756 21.6791 27.8731 22.6074 26.5155C23.0032 25.9363 23.4128 25.3374 23.7075 25.0394C24.0514 24.6916 24.5104 24.5 25 24.5C25.4896 24.5 25.9486 24.6916 26.2926 25.0395C26.5838 25.3339 26.9941 25.9326 27.3909 26.5115C28.3238 27.8726 29.2876 29.2788 30.6151 29.9308C30.6205 29.9776 30.625 30.0415 30.625 30.125C30.625 30.202 30.6214 30.2626 30.6165 30.309C30.1205 30.4283 28.8796 30.3355 27.9501 30.266C27.066 30.1999 26.0638 30.125 25 30.125C23.9362 30.125 22.934 30.1999 22.0497 30.266C21.1202 30.3355 19.8796 30.4281 19.3834 30.309C19.3786 30.2626 19.375 30.202 19.375 30.125C19.375 30.0415 19.3794 29.9776 19.3849 29.9308Z" fill="#F27A1A"/>
<path d="M15.625 37.625H34.375V41.375H15.625V37.625Z" fill="#F27A1A"/>
<path d="M11.875 45.125H38.125V48.875H11.875V45.125Z" fill="#F27A1A"/>
<path d="M15.625 52.625H34.375V56.375H15.625V52.625Z" fill="#F27A1A"/>
</svg>
