<svg width="64" height="64" viewBox="0 0 64 64" fill="none" xmlns="http://www.w3.org/2000/svg">
<g clip-path="url(#clip0)">
<path d="M26.979 25.1041C23.1766 25.1041 20.0832 28.1976 20.0832 32C20.0832 32.113 20.0863 32.2253 20.0917 32.3369C16.996 32.5086 14.5301 35.0809 14.5301 38.2188C14.5301 41.4674 17.1731 44.1104 20.4217 44.1104C21.0033 44.1104 21.5651 44.0244 22.0962 43.8666C22.0951 43.9279 22.0916 43.9885 22.0916 44.05C22.0916 49.5135 26.5365 53.9584 32 53.9584C37.4635 53.9584 41.9083 49.5135 41.9083 44.05C41.9083 43.9885 41.9048 43.9279 41.9037 43.8668C42.4348 44.0245 42.9965 44.1105 43.5781 44.1105C46.8267 44.1105 49.4697 41.4675 49.4697 38.2189C49.4697 35.081 47.0038 32.5089 43.9082 32.337C43.9136 32.2254 43.9167 32.113 43.9167 32.0001C43.9167 28.1978 40.8233 25.1043 37.021 25.1043C35.0433 25.1043 33.2587 25.9424 32.0001 27.2805C30.7412 25.9423 28.9566 25.1041 26.979 25.1041ZM20.4217 40.3605C19.2408 40.3605 18.2801 39.3998 18.2801 38.2189C18.2801 37.038 19.2408 36.0773 20.4217 36.0773C21.6026 36.0773 22.5635 37.038 22.5635 38.2189C22.5635 39.3998 21.6026 40.3605 20.4217 40.3605ZM23.8332 32C23.8332 30.2654 25.2443 28.8541 26.979 28.8541C28.7136 28.8541 30.1248 30.2654 30.1248 32C30.1248 33.7346 28.7136 35.1459 26.979 35.1459C25.2443 35.1459 23.8332 33.7346 23.8332 32ZM43.5778 36.0771C44.7587 36.0771 45.7195 37.0379 45.7195 38.2188C45.7195 39.3996 44.7587 40.3604 43.5778 40.3604C42.397 40.3604 41.4361 39.3996 41.4361 38.2188C41.4361 37.0379 42.397 36.0771 43.5778 36.0771ZM37.0207 28.8541C38.7553 28.8541 40.1665 30.2654 40.1665 32C40.1665 33.7346 38.7553 35.1459 37.0207 35.1459C35.2861 35.1459 33.8748 33.7346 33.8748 32C33.8748 30.2654 35.2861 28.8541 37.0207 28.8541ZM38.1582 44.05C38.1582 47.4458 35.3956 50.2084 31.9998 50.2084C28.6041 50.2084 25.8415 47.4458 25.8415 44.05C25.8415 40.6543 28.6041 37.8916 31.9998 37.8916C35.3956 37.8916 38.1582 40.6543 38.1582 44.05Z" fill="#F27A1A"/>
<path d="M63.4503 30.6742L57.9746 25.1984V1.875C57.9746 0.8395 57.1351 0 56.0996 0H48.0662C47.0307 0 46.1912 0.8395 46.1912 1.875V13.4151L33.3253 0.54925C32.5932 -0.183 31.406 -0.183 30.6737 0.54925L0.548699 30.6742C-0.183551 31.4065 -0.183551 32.5936 0.548699 33.3259C1.28082 34.0581 2.46807 34.0581 3.20032 33.3259L6.02457 30.5016V62.125C6.02457 63.1605 6.86407 64 7.89957 64H56.0996C57.1351 64 57.9746 63.1605 57.9746 62.125V30.5016L60.7988 33.3259C61.5308 34.058 62.7182 34.0583 63.4504 33.3259C64.1827 32.5936 64.1827 31.4065 63.4503 30.6742ZM54.2246 60.25H9.77457V26.7516L31.9996 4.52663L54.2246 26.7516V60.25ZM54.2246 21.4482L49.9412 17.1649V3.75H54.2246V21.4482Z" fill="#F27A1A"/>
</g>
<defs>
<clipPath id="clip0">
<rect width="64" height="64" fill="white"/>
</clipPath>
</defs>
</svg>
