<svg width="64" height="64" viewBox="0 0 64 64" fill="none" xmlns="http://www.w3.org/2000/svg">
<path d="M31.4194 0.0224732C30.7219 0.0296542 30.0649 0.351007 29.6148 0.910232L0 37.6019L2.70292 39.7837L31.4557 4.15338L61.3402 39.8072L63.9999 37.5767L33.2392 0.877169C32.7796 0.326471 32.1107 0.0202291 31.4194 0.0224732Z" fill="#F27A1A"/>
<path d="M31.9564 38.8524C32.1346 38.7924 32.3607 38.5 32.3723 38.3145C32.6337 33.8399 28.9389 27.8748 27.6083 25.8833C26.5371 26.3103 25.4948 27.0004 24.5326 28.0521C24.5326 28.0521 22.6109 29.3417 21.9291 35.6077C25.5234 40.2625 29.9896 39.5013 31.9564 38.8524Z" fill="#F27A1A"/>
<path d="M46.2111 30.91L40.3228 29.4727C40.3228 29.4727 40.155 28.0521 38.4852 27.4683C37.2682 27.0418 33.0747 24.6316 28.9488 25.4829C30.5087 27.8573 33.9788 33.71 33.7044 38.3913C33.6636 39.1274 33.0785 39.8878 32.375 40.1203C31.6988 40.3453 30.4852 40.6568 29.0103 40.6568C26.8733 40.6568 24.1892 39.9996 21.7711 37.4729C21.7237 38.2758 21.6966 39.1443 21.6919 40.0839C21.6648 44.9307 15.5082 49.5261 15.5082 49.5261L14.6882 51.2255C16.3619 54.8493 18.9855 57.9465 22.2427 60.1944C22.3904 57.8795 22.9708 56.0661 23.6432 54.7034C24.9165 52.1151 26.7021 50.6786 27.6134 50.0707C27.8094 44.7286 29.5433 43.1673 30.9898 42.8104C31.4342 42.7002 31.9026 42.7951 32.2711 43.0717C32.6904 43.3847 32.9601 43.9013 32.9875 44.4559C33.0619 45.8918 33.9106 46.8998 34.313 47.3002C34.9656 47.3609 35.5886 47.4643 36.175 47.6064L36.2289 47.1027L36.6771 42.7504C36.7531 42.0158 37.4133 41.3966 38.1441 41.2919C40.9193 40.8876 47.1025 39.2438 47.5043 32.5637C47.5506 31.8269 46.9283 31.0859 46.2111 30.91ZM37.0372 32.4617C36.6217 32.4617 36.2844 32.1258 36.2844 31.7099C36.2844 31.294 36.6217 30.9582 37.0372 30.9582C37.4535 30.9582 37.7892 31.294 37.7892 31.7099C37.7878 32.1251 37.4528 32.4617 37.0372 32.4617Z" fill="#F27A1A"/>
<path d="M40.3248 52.3514C40.1022 50.4576 37.4289 48.8971 33.9745 48.6753C33.9745 48.6753 32.1403 47.2653 32.0172 44.8314C31.997 44.4629 31.7216 44.0967 31.3639 44.1849C30.4408 44.412 28.8735 45.5971 28.7954 51.0092C28.7954 51.0092 23.775 53.542 23.4122 60.8441C26.6303 62.7776 30.3805 63.9118 34.3833 63.9777L34.3385 62.9317C34.3218 62.5632 34.5892 62.1591 34.934 62.03L39.2104 60.4263C39.2104 60.4263 41.2158 60.5388 42.05 59.0331C42.4724 58.2742 42.8643 57.7438 43.1531 57.4021C43.3893 57.121 43.3855 56.7192 43.1212 56.4623C42.2475 55.619 40.4911 53.7667 40.3248 52.3514ZM37.7881 54.1846C37.3734 54.1846 37.0367 53.8496 37.0367 53.4334C37.0367 53.0163 37.3734 52.6806 37.7881 52.6806C38.2043 52.6806 38.5409 53.0163 38.5409 53.4334C38.541 53.8494 38.2044 54.1846 37.7881 54.1846Z" fill="#F27A1A"/>
</svg>
