<svg width="48" height="64" viewBox="0 0 48 64" fill="none" xmlns="http://www.w3.org/2000/svg">
<path d="M45.8868 0H1.20755C0.540076 0 0 0.54068 0 1.20755V62.7925C0 63.4593 0.540076 64 1.20755 64H45.8868C46.5543 64 47.0943 63.4593 47.0943 62.7925V1.20755C47.0943 0.54068 46.5543 0 45.8868 0ZM44.6792 61.5849H2.41509V2.4151H44.6792V61.5849Z" fill="#F27A1A"/>
<path d="M7.24527 13.283H16.9056C17.5731 13.283 18.1132 12.7423 18.1132 12.0755C18.1132 11.4086 17.5731 10.8679 16.9056 10.8679H7.24527C6.5778 10.8679 6.03772 11.4086 6.03772 12.0755C6.03772 12.7423 6.5778 13.283 7.24527 13.283Z" fill="#F27A1A"/>
<path d="M7.24527 20.5284H20.5283C21.1958 20.5284 21.7358 19.9877 21.7358 19.3208C21.7358 18.654 21.1958 18.1133 20.5283 18.1133H7.24527C6.5778 18.1133 6.03772 18.654 6.03772 19.3208C6.03772 19.9877 6.5778 20.5284 7.24527 20.5284Z" fill="#F27A1A"/>
<path d="M7.24527 27.7737H33.8113C34.4788 27.7737 35.0188 27.2331 35.0188 26.5662C35.0188 25.8993 34.4788 25.3586 33.8113 25.3586H7.24527C6.5778 25.3586 6.03772 25.8993 6.03772 26.5662C6.03772 27.2331 6.5778 27.7737 7.24527 27.7737Z" fill="#F27A1A"/>
<path d="M7.24527 35.0189H33.8113C34.4788 35.0189 35.0188 34.4782 35.0188 33.8113C35.0188 33.1444 34.4788 32.6038 33.8113 32.6038H7.24527C6.5778 32.6038 6.03772 33.1444 6.03772 33.8113C6.03772 34.4782 6.5778 35.0189 7.24527 35.0189Z" fill="#F27A1A"/>
<path d="M29.5849 14.4905H30.1887V15.0942C30.1887 16.7588 31.5423 18.1131 33.2076 18.1131C34.8728 18.1131 36.2264 16.7588 36.2264 15.0942V14.4905H36.8302C38.4954 14.4905 39.8491 13.1362 39.8491 11.4716C39.8491 9.80698 38.4954 8.45272 36.8302 8.45272H36.2264V7.84895C36.2264 6.18434 34.8728 4.83008 33.2076 4.83008C31.5423 4.83008 30.1887 6.18434 30.1887 7.84895V8.45272H29.5849C27.9197 8.45272 26.566 9.80698 26.566 11.4716C26.566 13.1362 27.9197 14.4905 29.5849 14.4905ZM29.5849 10.8678H31.3962C32.0637 10.8678 32.6038 10.3271 32.6038 9.66027V7.84895C32.6038 7.51566 32.8749 7.24517 33.2076 7.24517C33.5402 7.24517 33.8113 7.51566 33.8113 7.84895V9.66027C33.8113 10.3271 34.3514 10.8678 35.0189 10.8678H36.8302C37.1629 10.8678 37.434 11.1383 37.434 11.4716C37.434 11.8049 37.1629 12.0754 36.8302 12.0754H35.0189C34.3514 12.0754 33.8113 12.616 33.8113 13.2829V15.0942C33.8113 15.4275 33.5402 15.698 33.2076 15.698C32.8749 15.698 32.6038 15.4275 32.6038 15.0942V13.2829C32.6038 12.616 32.0637 12.0754 31.3962 12.0754H29.5849C29.2522 12.0754 28.9811 11.8049 28.9811 11.4716C28.9811 11.1383 29.2522 10.8678 29.5849 10.8678Z" fill="#F27A1A"/>
<path d="M26.9325 48.078C26.7143 47.9228 26.5893 47.707 26.5893 47.4866C26.5893 45.8398 25.3464 44.4844 23.7591 44.401C22.9618 44.3603 22.1434 44.6468 21.5433 45.2176C20.9513 45.7794 20.6116 46.5698 20.6116 47.4866C20.6116 47.7076 20.4867 47.9228 20.2696 48.0762C19.3214 48.7485 18.8393 49.8839 19.0138 51.0401C19.2048 52.3047 20.1706 53.3242 21.4195 53.5778C21.6281 53.6197 21.8382 53.6403 22.0468 53.6403C22.3629 53.6403 22.6778 53.5926 22.976 53.4975C23.3887 53.3665 23.811 53.3659 24.2261 53.4981C24.7215 53.6551 25.2604 53.6807 25.7815 53.5772C27.0304 53.3242 27.9973 52.3047 28.1884 51.0383C28.3608 49.883 27.8796 48.7479 26.9325 48.078ZM25.303 51.2101C25.1828 51.2361 25.0648 51.2312 24.9564 51.1959C24.0685 50.9133 23.1309 50.9145 22.2455 51.1959C22.1383 51.2306 22.0227 51.2348 21.8998 51.2107C21.6547 51.1612 21.4409 50.933 21.4032 50.68C21.3642 50.4276 21.4633 50.1912 21.6661 50.0472C22.5187 49.4428 23.027 48.4859 23.027 47.3858C23.027 47.1711 23.139 47.0332 23.2064 46.9695C23.2701 46.9094 23.4032 46.8122 23.6015 46.8122C23.6121 46.8122 23.6227 46.8122 23.6332 46.8128C23.927 46.8282 24.1745 47.137 24.1745 47.4866C24.1745 48.4844 24.6829 49.4413 25.5354 50.0478C25.7395 50.1912 25.8373 50.4288 25.7996 50.6806C25.7618 50.933 25.5484 51.1606 25.303 51.2101Z" fill="#F27A1A"/>
<path d="M29.7472 44.8643C28.7257 44.8643 27.8976 45.6923 27.8976 46.7139C27.8976 47.7355 28.7257 48.5636 29.7472 48.5636C30.7688 48.5636 31.5966 47.7355 31.5966 46.7139C31.5966 45.6926 30.7688 44.8643 29.7472 44.8643Z" fill="#F27A1A"/>
<path d="M28.5238 42.1045C28.5238 41.083 27.6958 40.2549 26.6745 40.2549C25.6532 40.2549 24.8248 41.083 24.8248 42.1045C24.8248 43.1261 25.6529 43.9542 26.6745 43.9542C27.6961 43.9542 28.5238 43.1258 28.5238 42.1045Z" fill="#F27A1A"/>
<path d="M21.2963 43.954C22.3176 43.954 23.1457 43.1259 23.1457 42.1043C23.1457 41.0827 22.3176 40.2546 21.2963 40.2546C20.2747 40.2546 19.4467 41.0827 19.4467 42.1043C19.4467 43.1259 20.2747 43.954 21.2963 43.954Z" fill="#F27A1A"/>
<path d="M17.4546 44.8643C16.4333 44.8643 15.6052 45.6923 15.6052 46.7139C15.6052 47.7355 16.4333 48.5636 17.4546 48.5636C18.4762 48.5636 19.3042 47.7355 19.3042 46.7139C19.3042 45.6926 18.4762 44.8643 17.4546 44.8643Z" fill="#F27A1A"/>
</svg>
