<svg width="72" height="72" viewBox="0 0 72 72" fill="none" xmlns="http://www.w3.org/2000/svg">
<path d="M14.9062 0V15.3222C14.9062 16.9965 14.0746 18.5505 12.6816 19.4792C10.1121 21.1922 8.57812 24.0584 8.57812 27.1465V55.125H4.35938V59.3438H14.9062V67.7812H8.57812V72H25.4531V67.7812H19.125V59.3438H29.6719V55.125H25.4531V27.1465C25.4531 24.0585 23.9192 21.1923 21.3497 19.4794C19.9567 18.5507 19.125 16.9966 19.125 15.3224V0H14.9062ZM19.0097 22.9895C20.4027 23.9182 21.2344 25.4723 21.2344 27.1465V55.125H12.7969V27.1465C12.7969 25.4723 13.6285 23.9182 15.0216 22.9895C15.7814 22.483 16.4497 21.8749 17.0156 21.1908C17.5815 21.8749 18.2499 22.483 19.0097 22.9895Z" fill="#F27A1A"/>
<path d="M48.6562 12.7969C45.1669 12.7969 42.3281 15.6357 42.3281 19.125C42.3281 22.6143 45.1669 25.4531 48.6562 25.4531C52.1456 25.4531 54.9844 22.6143 54.9844 19.125C54.9844 15.6357 52.1456 12.7969 48.6562 12.7969ZM48.6562 21.2344C47.4931 21.2344 46.5469 20.2881 46.5469 19.125C46.5469 17.9619 47.4931 17.0156 48.6562 17.0156C49.8194 17.0156 50.7656 17.9619 50.7656 19.125C50.7656 20.2881 49.8194 21.2344 48.6562 21.2344Z" fill="#F27A1A"/>
<path d="M36 21.2344C32.5107 21.2344 29.6719 24.0732 29.6719 27.5625C29.6719 31.0518 32.5107 33.8906 36 33.8906C39.4893 33.8906 42.3281 31.0518 42.3281 27.5625C42.3281 24.0732 39.4893 21.2344 36 21.2344ZM36 29.6719C34.8369 29.6719 33.8906 28.7256 33.8906 27.5625C33.8906 26.3994 34.8369 25.4531 36 25.4531C37.1631 25.4531 38.1094 26.3994 38.1094 27.5625C38.1094 28.7256 37.1631 29.6719 36 29.6719Z" fill="#F27A1A"/>
<path d="M61.3125 33.8906C64.8018 33.8906 67.6406 31.0518 67.6406 27.5625C67.6406 24.0732 64.8018 21.2344 61.3125 21.2344C57.8232 21.2344 54.9844 24.0732 54.9844 27.5625C54.9844 31.0518 57.8232 33.8906 61.3125 33.8906ZM61.3125 25.4531C62.4756 25.4531 63.4219 26.3994 63.4219 27.5625C63.4219 28.7256 62.4756 29.6719 61.3125 29.6719C60.1494 29.6719 59.2031 28.7256 59.2031 27.5625C59.2031 26.3994 60.1494 25.4531 61.3125 25.4531Z" fill="#F27A1A"/>
<path d="M33.8906 48.6563C33.8906 50.1314 34.0796 52.2174 35.7135 53.2962C37.5559 54.5123 39.7555 53.5725 42.0848 52.5773C44.0723 51.7281 46.3251 50.7656 48.6562 50.7656C50.9874 50.7656 53.2402 51.7281 55.2277 52.5773C57.3446 53.4818 59.6945 54.5534 61.599 53.2962C63.2329 52.2174 63.4219 50.1314 63.4219 48.6563C63.4219 40.5145 56.798 33.8906 48.6562 33.8906C40.5145 33.8906 33.8906 40.5145 33.8906 48.6563ZM48.6562 38.1094C54.4718 38.1094 59.2031 42.8407 59.2031 48.6563C59.2031 49.0722 59.1791 49.3697 59.1501 49.5772C58.5564 49.4118 57.6177 49.0108 56.8853 48.6977C54.6422 47.7395 51.851 46.5469 48.6562 46.5469C45.4615 46.5469 42.6703 47.7395 40.4272 48.6977C39.6946 49.0108 38.756 49.4118 38.1624 49.5772C38.1334 49.3697 38.1094 49.0722 38.1094 48.6563C38.1094 42.8407 42.8407 38.1094 48.6562 38.1094Z" fill="#F27A1A"/>
</svg>
