<svg width="64" height="64" viewBox="0 0 64 64" fill="none" xmlns="http://www.w3.org/2000/svg">
<path d="M55.3649 49.6152C51.7811 39.4496 47.9676 28.2506 32.0004 28.2506C24.8881 28.2506 19.5545 30.4892 15.6946 35.0945C12.3467 39.0889 10.5442 44.2019 8.63587 49.6152C6.39637 55.9857 11.8986 62.2211 18.3997 60.9722C23.7775 59.938 31.1635 58.1955 41.72 60.2259L45.6009 60.9722C52.0335 62.209 57.6232 56.0394 55.3649 49.6152ZM46.3092 57.2896C40.8201 56.234 32.8545 54.3739 21.5725 56.5432L17.6916 57.2896C14.0264 57.9946 10.8941 54.4815 12.1726 50.862C15.7405 40.7411 18.8219 32.0006 32.0004 32.0006C45.1789 32.0006 48.2602 40.7412 51.8282 50.8621C53.108 54.485 49.9699 57.9945 46.3092 57.2896Z" fill="#F27A1A"/>
<path d="M47.7428 19.521C50.5861 15.7303 50.5884 9.75125 47.7428 5.95725C44.6523 1.8365 39.3473 1.8375 36.2575 5.95725C33.4143 9.748 33.4119 15.727 36.2575 19.521C39.348 23.6418 44.653 23.6408 47.7428 19.521ZM42.0002 6.61413C44.2362 6.61413 46.1252 9.419 46.1252 12.7391C46.1252 16.0593 44.2362 18.8641 42.0002 18.8641C39.7642 18.8641 37.8752 16.0593 37.8752 12.7391C37.8752 9.419 39.7642 6.61413 42.0002 6.61413Z" fill="#F27A1A"/>
<path d="M27.7428 19.521C30.586 15.7303 30.5884 9.75125 27.7428 5.95725C24.6523 1.8365 19.3474 1.8375 16.2575 5.95725C13.4143 9.748 13.4119 15.727 16.2575 19.521C19.348 23.6418 24.653 23.6408 27.7428 19.521ZM22.0002 6.61413C24.2362 6.61413 26.1252 9.419 26.1252 12.7391C26.1252 16.0593 24.2362 18.8641 22.0002 18.8641C19.7642 18.8641 17.8752 16.0593 17.8752 12.7391C17.8752 9.419 19.7642 6.61413 22.0002 6.61413Z" fill="#F27A1A"/>
<path d="M13.75 25.739C13.75 21.9481 10.6659 18.864 6.875 18.864C3.08413 18.864 0 21.9481 0 25.739C0 29.5299 3.08413 32.614 6.875 32.614C10.6659 32.614 13.75 29.5299 13.75 25.739ZM6.875 28.864C5.15188 28.864 3.75 27.4621 3.75 25.739C3.75 24.0159 5.15188 22.614 6.875 22.614C8.59813 22.614 10 24.0159 10 25.739C10 27.4621 8.59813 28.864 6.875 28.864Z" fill="#F27A1A"/>
<path d="M57.125 18.864C53.3341 18.864 50.25 21.9481 50.25 25.739C50.25 29.5299 53.3341 32.614 57.125 32.614C60.9159 32.614 64 29.5299 64 25.739C64 21.9481 60.9159 18.864 57.125 18.864ZM57.125 28.864C55.4019 28.864 54 27.4621 54 25.739C54 24.0159 55.4019 22.614 57.125 22.614C58.8481 22.614 60.25 24.0159 60.25 25.739C60.25 27.4621 58.8481 28.864 57.125 28.864Z" fill="#F27A1A"/>
<path d="M37 42.864H33.875V39.739C33.875 38.7035 33.0355 37.864 32 37.864C30.9645 37.864 30.125 38.7035 30.125 39.739V42.864H27C25.9645 42.864 25.125 43.7035 25.125 44.739C25.125 45.7745 25.9645 46.614 27 46.614H30.125V49.739C30.125 50.7745 30.9645 51.614 32 51.614C33.0355 51.614 33.875 50.7745 33.875 49.739V46.614H37C38.0355 46.614 38.875 45.7745 38.875 44.739C38.875 43.7035 38.0355 42.864 37 42.864Z" fill="#F27A1A"/>
</svg>
