<svg width="64" height="64" viewBox="0 0 64 64" fill="none" xmlns="http://www.w3.org/2000/svg">
<g clip-path="url(#clip0)">
<path d="M41.1496 25.5967L40.0922 22.3434L41.123 21.9682C41.1905 21.9437 41.2565 21.9152 41.3207 21.883C45.3742 19.8547 47.2612 15.112 45.7105 10.8505L43.9009 5.87925C43.0852 3.638 41.4455 1.84862 39.2839 0.840623C37.1222 -0.167377 34.6975 -0.273252 32.4565 0.542498C31.2179 0.993248 30.1127 1.70687 29.1946 2.63975C27.3461 1.74612 25.2826 1.25212 23.1254 1.25212C20.968 1.25212 18.9045 1.746 17.0561 2.63975C16.1381 1.70687 15.033 0.993373 13.7944 0.542623C11.5531 -0.272877 9.12861 -0.167252 6.96686 0.840748C4.80523 1.84862 3.16561 3.63812 2.34986 5.87925L0.540356 10.8506C-1.01039 15.112 0.876606 19.8547 4.93011 21.883C4.99436 21.9152 5.06036 21.9436 5.12786 21.9682L6.15861 22.3434L5.10123 25.5969C4.61961 27.0789 4.37536 28.6205 4.37536 30.1786C4.37536 38.3524 11.0252 45.0023 19.199 45.0023H27.0517C35.2255 45.0023 41.8754 38.3524 41.8754 30.1786C41.8755 28.6205 41.6312 27.0789 41.1496 25.5967ZM33.7392 4.06662C35.0389 3.59337 36.4455 3.65475 37.6992 4.2395C38.953 4.82412 39.904 5.86187 40.3771 7.162L42.1867 12.1332C43.0746 14.5729 42.0196 17.2842 39.7315 18.4841L38.9325 18.7749L36.3631 10.8694C35.5821 8.46625 34.1972 6.39437 32.4104 4.79437C32.8132 4.487 33.259 4.24137 33.7392 4.06662ZM6.51948 18.484C4.23136 17.2841 3.17648 14.5727 4.06423 12.1332L5.87386 7.16175C6.34698 5.86187 7.29798 4.824 8.55173 4.23937C9.80548 3.65462 11.2119 3.59312 12.5119 4.0665C12.9921 4.24125 13.4377 4.48687 13.8406 4.79412C12.0536 6.39425 10.6689 8.466 9.88786 10.8691L7.31861 18.7746L6.51948 18.484ZM27.0519 41.2523H19.1991C13.0931 41.2523 8.12548 36.2846 8.12548 30.1786C8.12548 29.0146 8.30786 27.8631 8.66773 26.7559L13.4542 12.0284C14.8201 7.82587 18.7067 5.00225 23.1255 5.00225C27.5442 5.00225 31.4309 7.82587 32.7967 12.0284L37.5832 26.7557C37.9431 27.863 38.1255 29.0145 38.1255 30.1786C38.1255 36.2846 33.1579 41.2523 27.0519 41.2523Z" fill="#F27A1A"/>
<path d="M27.3652 23.1132C26.322 22.6912 25.0148 22.5029 23.1263 22.5029C21.2378 22.5029 19.9305 22.6912 18.8874 23.1132C17.1874 23.8011 16.2513 25.1381 16.2513 26.8779C16.2513 29.4598 18.3602 32.4842 21.2513 33.4433V36.8779C21.2513 37.9134 22.0908 38.7529 23.1263 38.7529C24.1618 38.7529 25.0013 37.9134 25.0013 36.8779V33.4433C27.8924 32.4843 30.0013 29.4598 30.0013 26.8779C30.0013 25.1381 29.0652 23.8011 27.3652 23.1132ZM23.1263 30.0029C21.416 30.0029 20.0013 27.9339 20.0013 26.8779C20.0013 26.8063 20.0092 26.7632 20.014 26.7463C20.0664 26.6903 20.5588 26.2529 23.1263 26.2529C25.6938 26.2529 26.1862 26.6903 26.2385 26.7463C26.2433 26.7632 26.2513 26.8062 26.2513 26.8779C26.2513 27.9339 24.8364 30.0029 23.1263 30.0029Z" fill="#F27A1A"/>
<path d="M58.3742 52.7503C57.8529 52.7503 57.3484 52.8232 56.8689 52.9565L54.2105 49.1599L60.5341 40.1289C61.1281 39.2807 60.922 38.1115 60.0736 37.5175C59.2255 36.9235 58.0562 37.1295 57.4622 37.978L51.9215 45.8909L46.3807 37.978C45.7867 37.1297 44.6176 36.9237 43.7694 37.5175C42.9211 38.1115 42.7149 39.2805 43.3089 40.1289L49.6325 49.1599L46.9742 52.9565C46.4947 52.8232 45.9902 52.7503 45.4689 52.7503C42.3672 52.7503 39.8439 55.2737 39.8439 58.3753C39.8439 61.4769 42.3672 64.0003 45.4689 64.0003C48.5705 64.0003 51.0939 61.4769 51.0939 58.3753C51.0939 57.1582 50.704 56.031 50.0445 55.1095L51.9216 52.4288L53.7987 55.1095C53.139 56.031 52.7492 57.1582 52.7492 58.3753C52.7492 61.4769 55.2726 64.0003 58.3742 64.0003C61.4758 64.0003 63.9992 61.4769 63.9992 58.3753C63.9992 55.2737 61.4758 52.7503 58.3742 52.7503ZM45.4689 60.2503C44.435 60.2503 43.5939 59.4092 43.5939 58.3753C43.5939 57.3414 44.435 56.5003 45.4689 56.5003C46.5027 56.5003 47.3439 57.3414 47.3439 58.3753C47.3439 59.4092 46.5027 60.2503 45.4689 60.2503ZM58.3742 60.2503C57.3404 60.2503 56.4992 59.4092 56.4992 58.3753C56.4992 57.3414 57.3404 56.5003 58.3742 56.5003C59.4081 56.5003 60.2492 57.3414 60.2492 58.3753C60.2492 59.4092 59.4081 60.2503 58.3742 60.2503Z" fill="#F27A1A"/>
<path d="M28.7513 17.5029C29.7868 17.5029 30.6263 16.6635 30.6263 15.6279C30.6263 14.5924 29.7868 13.7529 28.7513 13.7529C27.7157 13.7529 26.8763 14.5924 26.8763 15.6279C26.8763 16.6635 27.7157 17.5029 28.7513 17.5029Z" fill="#F27A1A"/>
<path d="M17.5013 17.5029C18.5368 17.5029 19.3763 16.6635 19.3763 15.6279C19.3763 14.5924 18.5368 13.7529 17.5013 13.7529C16.4658 13.7529 15.6263 14.5924 15.6263 15.6279C15.6263 16.6635 16.4658 17.5029 17.5013 17.5029Z" fill="#F27A1A"/>
</g>
<defs>
<clipPath id="clip0">
<rect width="64" height="64" fill="white"/>
</clipPath>
</defs>
</svg>
