<svg width="78" height="64" viewBox="0 0 78 64" fill="none" xmlns="http://www.w3.org/2000/svg">
<path d="M69.7235 12.5218H58.457V8.03483C58.457 3.60489 54.8525 0 50.4229 0H28.9264C24.4965 0 20.8916 3.60454 20.8916 8.03483V12.5218H8.21118C3.68315 12.5218 0 16.2053 0 20.733V55.7888C0 60.3169 3.6835 64 8.21118 64H69.7239C74.2526 64 77.9357 60.3165 77.9357 55.7888V20.733C77.9357 16.2053 74.2522 12.5218 69.7235 12.5218ZM23.6746 8.03483C23.6746 5.13881 26.0304 2.78262 28.9268 2.78262H50.4236C53.3189 2.78262 55.6751 5.13846 55.6751 8.03483V13.9131C55.6751 14.6801 55.0514 15.3044 54.2838 15.3044C53.5161 15.3044 52.8925 14.6801 52.8925 13.9131V8.03483C52.8925 6.67343 51.785 5.56525 50.4236 5.56525H28.9264C27.565 5.56525 26.4568 6.67343 26.4568 8.03483V13.9131C26.4568 14.6801 25.8325 15.3044 25.0655 15.3044C24.2986 15.3044 23.6742 14.6801 23.6742 13.9131V8.03483H23.6746ZM50.1095 12.5218H29.2398V8.34787H50.1095V12.5218ZM8.21118 15.3044H21.1483C21.7243 16.9204 23.2544 18.0871 25.0659 18.0871C26.8774 18.0871 28.4071 16.9204 28.9835 15.3044H50.3658C50.9418 16.9204 52.4719 18.0871 54.2834 18.0871C56.0949 18.0871 57.6247 16.9204 58.201 15.3044H69.7239C72.7169 15.3044 75.1531 17.7399 75.1531 20.733V26.3045H37.5877V25.0314C37.5877 21.9629 35.091 19.4662 32.0224 19.4662C28.9539 19.4662 26.4572 21.9629 26.4572 25.0314V26.3045H23.6746V25.0314C23.6746 21.9629 21.1779 19.4662 18.1093 19.4662C15.0408 19.4662 12.5441 21.9629 12.5441 25.0314V26.3045H2.78228V20.733C2.78228 17.7399 5.21777 15.3044 8.21118 15.3044ZM34.8051 25.0314V30.7748C34.8051 32.3094 33.557 33.5574 32.0224 33.5574C30.4878 33.5574 29.2398 32.3094 29.2398 30.7748V25.0314C29.2398 23.4968 30.4878 22.2488 32.0224 22.2488C33.557 22.2488 34.8051 23.4968 34.8051 25.0314ZM20.8919 25.0314V30.7748C20.8919 32.3094 19.6439 33.5574 18.1093 33.5574C16.5747 33.5574 15.3267 32.3094 15.3267 30.7748V25.0314C15.3267 23.4968 16.5747 22.2488 18.1093 22.2488C19.6439 22.2488 20.8919 23.4968 20.8919 25.0314ZM69.7235 61.2177H8.21118C5.21812 61.2177 2.78262 58.7822 2.78262 55.7892V29.0871H12.5441V30.7748C12.5441 33.8433 15.0408 36.34 18.1093 36.34C21.1779 36.34 23.6746 33.8433 23.6746 30.7748V29.0871H26.4572V30.7748C26.4572 33.8433 28.9539 36.34 32.0224 36.34C35.091 36.34 37.5877 33.8433 37.5877 30.7748V29.0871H75.1531V55.7892C75.1531 58.7822 72.7169 61.2177 69.7235 61.2177Z" fill="#F27A1A"/>
<path d="M60.808 49.1653C60.2264 48.7528 59.8922 48.1539 59.8922 47.5212C59.8922 45.0095 58.0076 42.9431 55.6013 42.8175C54.3554 42.749 53.1516 43.1897 52.2399 44.0554C51.3418 44.9072 50.827 46.1062 50.827 47.3441V47.5215C50.827 48.1539 50.4928 48.7532 49.9112 49.1657C48.4656 50.19 47.7331 51.9205 47.9996 53.6802C48.2848 55.5748 49.7902 57.1633 51.6598 57.5417C51.9777 57.6064 52.2998 57.6381 52.6191 57.6381C53.1015 57.6381 53.5798 57.5654 54.0347 57.4207C54.9123 57.1407 55.8052 57.1421 56.6827 57.4207C57.441 57.66 58.2601 57.7031 59.0591 57.5417C60.9287 57.1633 62.4327 55.5751 62.7193 53.6802C62.9843 51.9181 62.2522 50.1883 60.808 49.1653ZM59.9669 53.2652C59.8542 54.0137 59.24 54.6652 58.5078 54.8134C58.1655 54.8833 57.8365 54.8662 57.5255 54.7678C56.1057 54.3174 54.6097 54.3188 53.1926 54.7678C52.8813 54.8655 52.5526 54.8826 52.2118 54.8141C51.4796 54.6652 50.8653 54.0137 50.7512 53.2638C50.6413 52.5382 50.9293 51.8547 51.5203 51.4356C52.8288 50.5083 53.61 49.045 53.61 47.5212V47.3438C53.61 46.8586 53.8045 46.4078 54.1561 46.0735C54.4834 45.7618 54.9088 45.5932 55.36 45.5932C55.3913 45.5932 55.4239 45.5945 55.4549 45.5959C56.368 45.6443 57.1099 46.5076 57.1099 47.5212C57.1099 49.045 57.8911 50.5083 59.1996 51.4356C59.7902 51.8541 60.0768 52.5382 59.9669 53.2652Z" fill="#F27A1A"/>
<path d="M66.2003 41.8596C63.8295 41.8596 61.9001 43.7883 61.9001 46.1591C61.9001 48.5299 63.8295 50.4586 66.2003 50.4586C68.5711 50.4586 70.4991 48.5299 70.4991 46.1591C70.4991 43.7883 68.5715 41.8596 66.2003 41.8596ZM66.2003 47.676C65.3635 47.676 64.6828 46.9953 64.6828 46.1591C64.6828 45.3229 65.3635 44.6422 66.2003 44.6422C67.0358 44.6422 67.7165 45.3229 67.7165 46.1591C67.7165 46.9953 67.0362 47.676 66.2003 47.676Z" fill="#F27A1A"/>
<path d="M60.7794 42.3283C63.1502 42.3283 65.0796 40.3995 65.0796 38.0288C65.0796 35.658 63.1502 33.7292 60.7794 33.7292C58.4086 33.7292 56.4806 35.658 56.4806 38.0288C56.4806 40.3995 58.4082 42.3283 60.7794 42.3283ZM60.7794 36.5119C61.6163 36.5119 62.297 37.1926 62.297 38.0288C62.297 38.8649 61.6163 39.5456 60.7794 39.5456C59.9439 39.5456 59.2632 38.8649 59.2632 38.0288C59.2632 37.1926 59.9436 36.5119 60.7794 36.5119Z" fill="#F27A1A"/>
<path d="M51.2943 42.3283C53.6651 42.3283 55.5931 40.3995 55.5931 38.0288C55.5931 35.658 53.6651 33.7292 51.2943 33.7292C48.9235 33.7292 46.9941 35.658 46.9941 38.0288C46.9941 40.3995 48.9235 42.3283 51.2943 42.3283ZM51.2943 36.5119C52.1298 36.5119 52.8105 37.1926 52.8105 38.0288C52.8105 38.8649 52.1298 39.5456 51.2943 39.5456C50.4574 39.5456 49.7768 38.8649 49.7768 38.0288C49.7768 37.1926 50.4574 36.5119 51.2943 36.5119Z" fill="#F27A1A"/>
<path d="M44.5186 41.8596C42.1478 41.8596 40.2184 43.7883 40.2184 46.1591C40.2184 48.5299 42.1478 50.4586 44.5186 50.4586C46.8894 50.4586 48.8174 48.5299 48.8174 46.1591C48.8174 43.7883 46.8894 41.8596 44.5186 41.8596ZM44.5186 47.676C43.6817 47.676 43.001 46.9953 43.001 46.1591C43.001 45.3229 43.6817 44.6422 44.5186 44.6422C45.3541 44.6422 46.0348 45.3229 46.0348 46.1591C46.0348 46.9953 45.3541 47.676 44.5186 47.676Z" fill="#F27A1A"/>
</svg>
